<svg width="1600" height="900" viewBox="0 0 1600 900" xmlns="http://www.w3.org/2000/svg" role="img" aria-label="Botanical wellness illustration">
  <defs>
    <linearGradient id="g0" x1="0" y1="0" x2="1" y2="1">
      <stop offset="0" stop-color="#0f160f"/>
      <stop offset="0.55" stop-color="#1d2a1a"/>
      <stop offset="1" stop-color="#2b3a24"/>
    </linearGradient>
    <radialGradient id="glow" cx="75%" cy="30%" r="70%">
      <stop offset="0" stop-color="#c2762e" stop-opacity="0.40"/>
      <stop offset="0.55" stop-color="#c2762e" stop-opacity="0.12"/>
      <stop offset="1" stop-color="#c2762e" stop-opacity="0"/>
    </radialGradient>
    <filter id="grain" x="-20%" y="-20%" width="140%" height="140%">
      <feTurbulence type="fractalNoise" baseFrequency="0.9" numOctaves="3" stitchTiles="stitch" />
      <feColorMatrix type="matrix" values="
        1 0 0 0 0
        0 1 0 0 0
        0 0 1 0 0
        0 0 0 0.07 0" />
    </filter>
    <filter id="soft" x="-20%" y="-20%" width="140%" height="140%">
      <feGaussianBlur stdDeviation="1.1" />
    </filter>
    <linearGradient id="leaf" x1="0" y1="0" x2="0" y2="1">
      <stop offset="0" stop-color="#eef0e7" stop-opacity="0.16"/>
      <stop offset="1" stop-color="#eef0e7" stop-opacity="0.04"/>
    </linearGradient>
    <linearGradient id="amber" x1="0" y1="0" x2="1" y2="0">
      <stop offset="0" stop-color="#c2762e" stop-opacity="0.35"/>
      <stop offset="1" stop-color="#a6573e" stop-opacity="0.22"/>
    </linearGradient>
  </defs>

  <rect width="1600" height="900" fill="url(#g0)"/>
  <rect width="1600" height="900" fill="url(#glow)"/>

  <!-- subtle ring-lines -->
  <g opacity="0.28" stroke="#eef0e7" stroke-opacity="0.18" fill="none">
    <path d="M1260 120c150 40 240 130 270 270" />
    <path d="M1190 160c170 30 270 135 310 305" />
    <path d="M1110 210c190 18 300 145 345 350" />
  </g>

  <!-- botanical silhouettes -->
  <g filter="url(#soft)" opacity="0.9">
    <!-- left herb sprigs -->
    <path d="M210 820c40-120 55-210 60-300 6-100 22-170 72-260 18-33 52-62 72-82"
      stroke="url(#leaf)" stroke-width="10" stroke-linecap="round" fill="none"/>
    <path d="M360 380c-40 20-72 52-90 92" stroke="url(#leaf)" stroke-width="6" stroke-linecap="round" fill="none"/>
    <path d="M330 500c-44 16-80 48-106 92" stroke="url(#leaf)" stroke-width="6" stroke-linecap="round" fill="none"/>
    <path d="M310 620c-40 10-78 38-112 76" stroke="url(#leaf)" stroke-width="6" stroke-linecap="round" fill="none"/>

    <!-- right leaf cluster -->
    <path d="M1320 860c-28-110-55-180-100-250-48-74-70-140-74-220-4-78 22-150 60-210"
      stroke="url(#leaf)" stroke-width="12" stroke-linecap="round" fill="none"/>

    <path d="M1190 340c70 0 130 40 156 104-80 26-154 8-204-42 12-34 28-52 48-62z"
      fill="url(#leaf)" opacity="0.45"/>
    <path d="M1230 520c82 6 140 58 158 128-94 20-170-10-212-70 16-34 26-46 54-58z"
      fill="url(#leaf)" opacity="0.38"/>
    <path d="M1140 680c78 18 124 78 130 150-96 6-164-40-188-108 22-22 34-34 58-42z"
      fill="url(#leaf)" opacity="0.34"/>
  </g>

  <!-- amber accents -->
  <g opacity="0.9">
    <circle cx="1040" cy="260" r="180" fill="url(#amber)" opacity="0.28"/>
    <circle cx="520" cy="720" r="210" fill="url(#amber)" opacity="0.16"/>
  </g>

  <!-- fine grain -->
  <rect width="1600" height="900" filter="url(#grain)" opacity="0.9"/>
</svg>

